<?xml version="1.0" encoding="UTF-8" standalone="no"?>
<svg
   xmlns:dc="http://purl.org/dc/elements/1.1/"
   xmlns:cc="http://creativecommons.org/ns#"
   xmlns:rdf="http://www.w3.org/1999/02/22-rdf-syntax-ns#"
   xmlns:svg="http://www.w3.org/2000/svg"
   xmlns="http://www.w3.org/2000/svg"
   version="1.1"
   id="svg151"
   width="124.8"
   height="124.8"
   viewBox="0 0 124.8 124.8">
  <metadata
     id="metadata157">
    <rdf:RDF>
      <cc:Work
         rdf:about="">
        <dc:format>image/svg+xml</dc:format>
        <dc:type
           rdf:resource="http://purl.org/dc/dcmitype/StillImage" />
        <dc:title></dc:title>
      </cc:Work>
    </rdf:RDF>
  </metadata>
  <defs
     id="defs155" />
  <g
     id="g159">
    <path
       style="fill:#f9f9f9;stroke-width:0.96"
       d="m 67.411991,122.70636 c -1.40373,-0.76243 -3.56373,-3.01313 -4.8,-5.00156 -1.86065,-2.99267 -2.21869,-4.77267 -2.07891,-10.33532 0.0929,-3.696 0.84888,-8.610321 1.68,-10.920705 0.83113,-2.31038 1.51114,-4.57838 1.51114,-5.039997 0,-0.461616 -1.88969,-0.839302 -4.19931,-0.839302 -2.30961,0 -6.02761,-0.645066 -8.26222,-1.433481 -4.64763,-1.639781 -5.238,-1.436336 -7.27768,2.507969 -1.43669,2.778262 -1.38911,2.98257 1.44683,6.212526 1.61281,1.836884 2.93238,4.40476 2.93238,5.7064 0,3.02454 -3.16346,6.20659 -6.17033,6.20659 -2.31566,0 -6.30967,-3.91931 -6.30967,-6.19166 0,-0.62301 -1.52666,-1.86074 -3.39257,-2.75054 -4.2217,-2.01319 -4.28743,-2.01054 -4.28743,0.17273 0,2.91549 3.44002,6.42573 7.48479,7.63756 5.47675,1.64088 8.83521,4.59347 8.83521,7.7675 0,2.65573 -2.88526,4.8844 -6.32342,4.8844 -4.67004,0 -17.7718,-10.52365 -22.64364,-18.18794 -3.25087,-5.114201 -3.413,-8.785397 -0.66259,-15.00315 1.85481,-4.193106 1.94636,-5.199519 0.96,-10.552718 -2.13023,-11.561154 -1.02491,-18.776359 3.92422,-25.616186 0.97777,-1.351307 0.97908,-2.008693 0.007,-3.36 -4.4339,-6.161555 -5.01423,-7.64407 -5.01769,-12.818032 -0.008,-11.919283 8.74552,-17.819508 29.51013,-19.891132 8.49289,-0.847311 12.36021,-2.273187 11.21058,-4.133329 -0.29401,-0.475719 -2.26034,-1.7453679 -4.36962,-2.8214423 -4.59737,-2.3454039 -4.80425,-5.4080719 -0.5041,-7.4628679 6.23027,-2.9770939 14.72642,4.252686 13.75074,11.7011642 -0.95531,7.292945 -5.15213,9.545383 -19.84131,10.648856 -10.84551,0.81473 -14.88669,2.14424 -18.2861,6.015954 -3.33943,3.803396 -3.50403,5.763764 -0.91077,10.846975 2.37243,4.650348 4.33445,5.752353 10.25376,5.759208 8.36563,0.0097 11.70826,1.58832 19.57684,9.245594 7.57784,7.374346 11.68822,9.480022 16.48627,8.445639 2.88534,-0.622034 3.53431,-2.747988 1.12148,-3.673878 -2.30937,-0.886189 -6.07313,-0.697548 -8.1387,0.407914 -1.59511,0.853674 -1.81864,0.68778 -1.61689,-1.2 0.1969,-1.842448 -0.18549,-2.161898 -2.40589,-2.00989 -2.77181,0.189757 -3.62351,-1.303585 -1.26062,-2.210311 2.53683,-0.973474 0.42541,-3.246459 -3.16209,-3.404058 l -3.49729,-0.153635 3.17504,-0.391294 c 1.74628,-0.215212 3.41839,-1.025422 3.7158,-1.800469 0.29741,-0.775045 -0.63038,-4.018803 -2.06177,-7.208351 -1.43138,-3.189547 -2.39234,-6.009343 -2.13547,-6.266214 0.25687,-0.256872 3.0891,0.0084 6.29384,0.589563 5.15293,0.934403 6.24696,0.842723 9.45968,-0.792724 1.99808,-1.017129 5.46888,-2.397836 7.71288,-3.068239 2.244,-0.670403 4.08948,-1.690533 4.10108,-2.266957 0.0116,-0.576424 0.8819,-2.945296 1.934,-5.264159 1.90711,-4.203298 1.91914,-4.210593 3.95829,-2.4 1.12496,0.998863 2.85343,3.621744 3.84107,5.828626 2.348822,5.248485 4.297892,5.563628 8.707929,1.407976 4.43882,-4.182767 6.06728,-3.208827 1.87201,1.119597 -3.20084,3.302425 -3.524047,4.193552 -2.24946,6.201867 0.61844,0.974449 1.50857,0.915668 4.39465,-0.290215 5.53167,-2.311277 6.31776,-1.128033 1.01298,1.524747 -5.72983,2.865338 -6.30635,4.256569 -2.17005,5.236764 l 3.1575,0.748248 -3.22273,0.579253 c -2.33201,0.419156 -4.02325,1.6869 -6.119137,4.586883 -2.61773,3.622034 -2.79258,4.305479 -1.81727,7.103254 0.59352,1.702593 1.07914,4.079946 1.07914,5.283007 0,2.067859 0.27846,2.158643 5.096097,1.661418 8.54815,-0.882245 10.22468,3.075798 6.43987,15.203568 -2.29033,7.33898 -4.84207,11.684949 -8.12314,13.834788 -5.070687,3.322433 -9.976689,-1.178824 -7.414309,-6.802629 0.81199,-1.782137 -0.46126,-1.12575 -5.76439,2.971664 -10.3855,8.024262 -12.05558,9.551027 -14.68353,13.423533 -3.57817,5.27274 -3.21883,8.34985 1.4094,12.0692 2.47026,1.98516 3.84,3.87263 3.84,5.29145 0,3.94951 -5.76295,5.41819 -10.71223,2.73 z m 15.51223,-76.266754 c 0,-0.51143 -0.648,-0.681211 -1.44,-0.377291 -0.792,0.303919 -1.44,0.722361 -1.44,0.92987 0,0.20751 0.648,0.377291 1.44,0.377291 0.792,0 1.44,-0.418442 1.44,-0.92987 z"
       id="path163" />
  </g>
</svg>
